<?xml version="1.0" encoding="UTF-8"?>
<svg version="1.1" xmlns="http://www.w3.org/2000/svg" width="500" height="500">
<path d="M0 0 C165 0 330 0 500 0 C500 165 500 330 500 500 C335 500 170 500 0 500 C0 335 0 170 0 0 Z " fill="#FEFEFF" transform="translate(0,0)"/>
<path d="M0 0 C80.85 0 161.7 0 245 0 C245 37.95 245 75.9 245 115 C228.665 115.495 228.665 115.495 212 116 C206.09416184 116.81593817 200.72555918 117.64283042 195 119 C193.59305729 119.29459211 192.18547699 119.58615215 190.77734375 119.875 C159.84694164 126.41910827 129.69475543 142.91933881 108 166 C106.7625 167.2065625 106.7625 167.2065625 105.5 168.4375 C90.59724481 183.71282407 79.20750902 201.81688439 70.75 221.375 C70.44489502 222.06827393 70.13979004 222.76154785 69.82543945 223.47583008 C66.35286038 231.82559532 64.46673211 240.11976439 62 249 C42.2 249 22.4 249 2 249 C1.814375 240.605625 1.62875 232.21125 1.4375 223.5625 C1.35556396 220.92967041 1.27362793 218.29684082 1.18920898 215.58422852 C1.16289933 213.47416296 1.13997104 211.36405139 1.12109375 209.25390625 C1.07505005 208.17717651 1.02900635 207.10044678 0.98156738 205.99108887 C0.97508603 199.70633902 1.81252069 196.49501127 6.30102539 191.95678711 C7.84137746 190.60761592 9.40710989 189.28672005 11 188 C12.35655762 186.81523208 13.71115835 185.6282138 15.0625 184.4375 C16.03896484 183.60025391 16.03896484 183.60025391 17.03515625 182.74609375 C19.81561832 180.27518611 22.39118218 177.6183306 25 174.96875 C27.56305228 172.44574541 30.27345824 170.12437183 33 167.78125 C35.08337078 165.9257479 37.04281207 163.98776899 39 162 C42.20029522 158.74970017 45.54224576 155.75275755 49 152.78125 C51.08337078 150.9257479 53.04281207 148.98776899 55 147 C58.20029522 143.74970017 61.54224576 140.75275755 65 137.78125 C67.78688149 135.29918367 70.37355299 132.63752368 72.98828125 129.9765625 C74.98617608 128.01358234 77.05574268 126.19079329 79.1875 124.375 C81.60589453 122.30410293 83.46499396 120.4303824 85.5 117.9375 C87.56368101 115.51267482 89.09479946 114.10515221 91.625 112.3125 C95.81177149 109.31066384 99.33646202 105.77383664 102.92553711 102.10546875 C106.18668519 98.78148653 109.56597161 95.69624826 113.10546875 92.67578125 C115.86660325 90.23345816 118.41468811 87.59445739 121 84.96875 C123.56305228 82.44574541 126.27345824 80.12437183 129 77.78125 C131.78062208 75.30475846 134.36141216 72.64870408 136.97265625 69.99609375 C139.6886893 67.32192633 142.54331352 64.83069543 145.43359375 62.34765625 C146.31248398 61.59150381 147.18017851 60.81982149 148 60 C74.74 59.505 74.74 59.505 0 59 C0 39.53 0 20.06 0 0 Z " fill="#8459FF" transform="translate(121,163)"/>
<path d="M0 0 C0 32.67 0 65.34 0 99 C-48.84 99 -97.68 99 -148 99 C-145.93099864 91.41366167 -143.91543411 84.84462704 -140.5625 77.875 C-140.12856934 76.97265625 -139.69463867 76.0703125 -139.24755859 75.140625 C-123.1530894 42.71189673 -94.51265677 18.6439868 -60.75 6.1875 C-42.56755275 0.08573279 -19.04168356 -4.76042089 0 0 Z " fill="#8459FF" transform="translate(366,313)"/>
<path d="M0 0 C8.60026784 6.14304846 13.92402368 14.27207104 17.25 24.25 C18.10781446 38.08753166 17.37783775 49.23791337 8.08984375 60.25390625 C5.31250029 63.26711752 2.62994118 65.91574921 -0.75 68.25 C-1.44738281 68.73726563 -2.14476562 69.22453125 -2.86328125 69.7265625 C-12.24442668 75.08294219 -25.66317869 75.38815696 -36.00488281 72.65380859 C-46.76036706 68.76314254 -54.55747337 61.29268886 -59.75 51.25 C-60.07097656 50.63125 -60.39195312 50.0125 -60.72265625 49.375 C-64.65494762 40.01065963 -64.32748252 27.15166604 -60.8125 17.75 C-55.57183253 7.09151575 -46.61219345 -1.16016671 -35.625 -5.625 C-23.05094115 -9.2960976 -10.89939234 -6.7157872 0 0 Z " fill="#855BFF" transform="translate(352.75,72.75)"/>
<path d="M0 0 C5.14338337 2.9958329 8.76038445 7.90615335 10.625 13.5 C11.36464159 20.3265281 10.75875281 25.88819022 6.625 31.5 C2.63300307 35.66437862 -0.59404943 38.28926958 -6.51953125 38.73828125 C-16.41371044 38.93848296 -16.41371044 38.93848296 -20.9375 36.875 C-26.5911598 31.36630583 -30.58728563 26.44985963 -30.875 18.25 C-30.73949867 11.96612584 -28.61986066 8.04546238 -24.375 3.5 C-17.69482351 -2.83874525 -8.3885474 -3.58361316 0 0 Z " fill="#FDFDFF" transform="translate(340.375,86.5)"/>
</svg>
