<?xml version="1.0" encoding="UTF-8"?>
<svg version="1.1" xmlns="http://www.w3.org/2000/svg" width="500" height="500">
<path d="M0 0 C165 0 330 0 500 0 C500 165 500 330 500 500 C335 500 170 500 0 500 C0 335 0 170 0 0 Z " fill="#8459FF" transform="translate(0,0)"/>
<path d="M0 0 C77.55 0 155.1 0 235 0 C235 36.63 235 73.26 235 111 C219.16 111.495 219.16 111.495 203 112 C197.06767599 112.7962851 191.73767139 113.60781374 186 115 C184.89954346 115.2472583 184.89954346 115.2472583 183.77685547 115.49951172 C156.28586989 121.69200086 130.74275012 134.78990119 110.10546875 154.046875 C108.38742539 155.64060724 106.65134665 157.11458926 104.8125 158.5625 C86.34865075 174.56450268 73.53116505 198.33302235 65.125 220.9375 C64.83874756 221.70594238 64.55249512 222.47438477 64.25756836 223.26611328 C62.60116622 227.87735363 61.37040648 232.44360591 60.42529297 237.25219727 C60 239 60 239 59 240 C57.18944975 240.09376053 55.37522799 240.1174411 53.56225586 240.11352539 C51.82056374 240.11341209 51.82056374 240.11341209 50.04368591 240.11329651 C48.14840904 240.10555458 48.14840904 240.10555458 46.21484375 240.09765625 C44.92888809 240.0962413 43.64293243 240.09482635 42.31800842 240.09336853 C38.89356557 240.08954418 35.46916491 240.07971462 32.04473877 240.06866455 C28.55261811 240.05844864 25.06049066 240.05387053 21.56835938 240.04882812 C14.71222222 240.03809227 7.85611313 240.02101684 1 240 C0.82207232 233.00779391 0.69974306 226.01617425 0.61547852 219.0222168 C0.58034144 216.64471624 0.53262047 214.26736623 0.47192383 211.89038086 C0.38671291 208.466907 0.34724263 205.04543693 0.31640625 201.62109375 C0.28027725 200.56353378 0.24414825 199.50597382 0.20692444 198.41636658 C0.20406223 193.00011046 0.49956609 189.84100305 4.40600586 185.89672852 C5.58160427 184.90400246 6.77740141 183.93423196 8 183 C8.721875 182.3503125 9.44375 181.700625 10.1875 181.03125 C10.785625 180.5259375 11.38375 180.020625 12 179.5 C14.60647609 177.2544206 17.08934521 174.95448488 19.5 172.5 C21.89053167 170.06610268 24.35046262 167.78644441 26.9375 165.5625 C29.74576347 163.14382221 32.39970593 160.64100317 35 158 C38.20029522 154.74970017 41.54224576 151.75275755 45 148.78125 C47.78885533 146.29742572 50.37686983 143.63288563 52.99609375 140.97265625 C55.58246151 138.42662171 58.3153528 136.07978443 61.06640625 133.71484375 C62.95494597 132.03995701 64.73155648 130.30052413 66.5 128.5 C68.89053167 126.06610268 71.35046262 123.78644441 73.9375 121.5625 C76.74576347 119.14382221 79.39970593 116.64100317 82 114 C85.2215855 110.72797872 88.58592145 107.70683945 92.06640625 104.71484375 C93.95494597 103.03995701 95.73155648 101.30052413 97.5 99.5 C99.89053167 97.06610268 102.35046262 94.78644441 104.9375 92.5625 C107.74576347 90.14382221 110.39970593 87.64100317 113 85 C116.20029522 81.74970017 119.54224576 78.75275755 123 75.78125 C125.78062208 73.30475846 128.36141216 70.64870408 130.97265625 67.99609375 C133.6886893 65.32192633 136.54331352 62.83069543 139.43359375 60.34765625 C140.31248398 59.59150381 141.18017851 58.81982149 142 58 C95.14 57.67 48.28 57.34 0 57 C0 38.19 0 19.38 0 0 Z " fill="#FEFEFF" transform="translate(126,162)"/>
<path d="M0 0 C0 31.68 0 63.36 0 96 C-46.53 96 -93.06 96 -141 96 C-139.87240356 86.97922849 -139.87240356 86.97922849 -138.28515625 83.37109375 C-137.93388672 82.5711499 -137.58261719 81.77120605 -137.22070312 80.94702148 C-136.83849609 80.11887939 -136.45628906 79.2907373 -136.0625 78.4375 C-135.66353516 77.56488525 -135.26457031 76.69227051 -134.85351562 75.79321289 C-119.87152475 43.96230731 -92.73105487 19.84216617 -60.015625 7.34765625 C-39.36977553 0.15716916 -22.99884042 0 0 0 Z " fill="#FEFEFF" transform="translate(361,306)"/>
<path d="M0 0 C10.58991114 6.60711657 17.806998 15.44684212 20.6796875 27.671875 C21.91154918 40.88521235 20.30070293 51.35010023 11.7421875 61.984375 C5.23896156 68.77225393 -4.5644404 74.25687143 -14.0546875 74.83984375 C-26.47522878 74.92028767 -36.72229046 72.2818257 -46.0703125 63.609375 C-54.69431375 54.49606872 -57.7117814 44.56782155 -57.59765625 32.34375 C-56.86642299 22.66263359 -52.30724299 13.34423103 -45.21484375 6.69921875 C-32.33077496 -3.74552549 -15.38561369 -7.58625827 0 0 Z " fill="#FDFCFF" transform="translate(345.3203125,72.328125)"/>
<path d="M0 0 C4.86408252 1.65349147 7.83883332 4.29823261 10.4375 8.6875 C10.953125 9.780625 11.46875 10.87375 12 12 C12.495 12.99 12.495 12.99 13 14 C13.82199881 20.49513811 12.80290633 25.64082739 9 31 C5.211222 35.0898042 0.93923588 37.53684768 -4.578125 38.40625 C-10.9093394 38.62839787 -15.04751915 37.721867 -20.1171875 33.82421875 C-24.7744457 29.31189597 -26.20979253 24.85724102 -26.5 18.4375 C-26.25346059 12.49590033 -24.80658092 8.74930375 -20.46875 4.5 C-14.08229466 -1.00988304 -8.21633767 -0.78379537 0 0 Z " fill="#855BFF" transform="translate(334,89)"/>
</svg>
